<?xml version="1.0" encoding="UTF-8"?><svg xmlns="http://www.w3.org/2000/svg" viewBox="0 0 243.76 276.77"><defs><style>.d{fill:#fff;}.e{isolation:isolate;}.f{fill:#5e8fb7;}.g{fill:#26619c;stroke:#fff;stroke-linejoin:round;stroke-width:4px;}</style></defs><g id="a"/><g id="b"><g id="c"><polygon class="g" points="120.5 137.77 120.5 274.77 2 206.35 2 69.52 2.14 69.44 120.5 137.77"/><g><polygon class="f" points="5.9 68.35 122.26 1.16 238.61 68.35 122.26 135.52 5.9 68.35"/><path class="d" d="M122.26,2.31l114.35,66.03-114.35,66.02L7.9,68.34,122.26,2.31m0-2.31L3.9,68.34l118.36,68.33,118.35-68.33L122.26,0h0Z"/></g><polygon class="g" points="241.76 69.52 241.76 206.35 123.26 274.77 123.26 137.77 241.61 69.44 241.62 69.44 241.76 69.52"/><path class="d" d="M71.95,191.69v-7.01l13,7.51v7.7c0,9.16,3.87,14.54,7.95,16.9,3.87,2.23,8.05,1.64,8.05-7.66v-74.77l13,7.51v74.08c0,17.35-8.75,24.55-21.11,17.41-12.36-7.15-20.89-24.32-20.89-41.67Z"/><path class="d" d="M129.54,238.68v-41.34c0-16.44,8.22-32.68,19.93-39.44s19.93-.27,20.13,15.63l-12.02,6.94c0-8.49-3.39-9.68-8.01-7.02-4.73,2.73-8.01,7.91-8.01,17.64v41.4c0,8.49,3.49,9.76,7.91,7.21,4.21-2.43,8.11-7.7,8.11-16.46v-6.87l-9.35,4.48v-13.49l20.03-11.56v20.53c0,15.89-7.94,31.46-19.46,38.11-11.32,6.53-19.26,.13-19.26-15.76Z"/><g class="e" transform="matrix(0.75 -0.433 0.866 0.5 637.464 676.6872)"><g class="e"><path class="d" d="M34.89,67.13c-2.12-1.22-2.4-3.1-.57-4.16,1.88-1.09,5.14-.92,7.25,.3,2.11,1.22,2.34,3.07,.46,4.15-1.83,1.06-5.03,.92-7.14-.3Zm42.74,27.19c1.78-1.03,1.92-2.03-1.11-3.78l-34.06-19.67,5.54-3.2,32.75,18.91c7.32,4.22,8.54,7.67,2.65,11.08l-5.77-3.33Z"/><path class="d" d="M74.9,77.82l-22.23-12.84,5.49-3.17,23.15,13.36c2.63,1.52,5.29,1.17,6.88,.25,1.39-.8,2.14-2.42-.49-3.94l-23.15-13.36,5.5-3.17,22.23,12.84c6.34,3.66,6.92,7.88,1.62,10.94-5.5,3.17-12.66,2.75-19-.91Z"/><path class="d" d="M96.39,66.4l5.49-3.17c2.86,1.65,5.59,1.46,7.52,.34,1.93-1.12,1.97-2.52-.09-3.71-2-1.16-5.93-.8-10.4-.46-5.62,.41-12.21,.78-17.01-1.99-4.97-2.87-5.69-6.54-.4-9.6,5.59-3.23,11.74-3.28,17.91,.28l-5.4,3.12c-2.86-1.65-5.15-1.32-6.88-.32-1.73,1-1.53,2.2,.13,3.16,2.34,1.35,5.87,1.16,9.97,.84,5.68-.44,12.26-1.21,17.46,1.8,5.14,2.97,5.87,6.71,.13,10.02-5.54,3.2-12.5,3.13-18.45-.3Z"/><path class="d" d="M115.81,51.89l-14.57-8.41-2.28,1.31-5.26-3.04c3.07-1.77,2.64-3.11-2.05-5.81l3.76-2.17,5.66,3.27,4.31-2.49,5.66,3.27-4.31,2.49,16.52,9.54c3.89,2.24,5.96,2.24,8.76,.03l5.71,3.3c-6.97,5.35-12.88,3.94-21.91-1.27Z"/></g><g class="e"><path class="d" d="M129.97,111.33l5.35-3.09c2.11,1.22,4.35,1.31,6.43,.11s1.98-2.46-.48-3.88l-5.94-3.43c.45,.66,1.47,2.85-1.85,4.76-4.11,2.37-9.69,2.29-16.55-1.67l-13.37-7.72c-6.86-3.96-6.93-7.15-3.02-9.41,3.27-1.89,7.37-1.75,8.68-1.45l-2.8-1.62,5.15-2.97,32.18,18.58c7.37,4.26,10.37,7.47,3.05,11.7-6.83,3.94-12.64,2.48-16.81,.07Zm-4.13-15.76l-7.66-4.42c-5.03-2.9-7.63-3.38-9.91-2.06-1.93,1.12-1.68,2.69,1.69,4.63l11.66,6.73c3.49,2.01,6.15,2.12,8.08,1.01,2.38-1.37,1.34-2.88-3.86-5.89Z"/><path class="d" d="M153.62,93.78l-39.25-14.43,5.94-3.43,24.83,9.82-17.06-14.31,5.99-3.46,33.59,30.37-5.64,3.26-8.4-7.82Z"/><path class="d" d="M136.85,66.38l5.2-3,2.63,1.52c-.33-.53-1.39-2.63,1.73-4.43,2.38-1.37,5.45-1.83,9-1.04-.74-1.29-1.08-3.54,1.99-5.31,3.86-2.23,9.04-1.98,15.61,1.81l23.03,13.3-5.54,3.2-23.15-13.36c-2.63-1.52-4.78-1.33-6.17-.53-1.29,.74-1.65,2.08,.81,3.5l23.26,13.43-5.54,3.2-23.15-13.36c-2.57-1.49-4.73-1.36-6.22-.5-1.29,.74-1.71,2.04,.81,3.5l23.26,13.43-5.5,3.17-32.06-18.51Z"/><path class="d" d="M196.42,65.05c-2.17-1.25-2.46-3.13-.63-4.19,1.88-1.09,5.14-.92,7.31,.33,2.12,1.22,2.34,3.07,.46,4.15-1.83,1.06-5.03,.92-7.15-.3Z"/></g></g></g></g></svg>